<svg xmlns="http://www.w3.org/2000/svg" width="16" height="16" viewBox="0 0 16 16">
  <path id="arrow_circle_right_FILL0_wght400_GRAD0_opsz24" d="M88-868.8l3.2-3.2L88-875.2l-1.12,1.12,1.28,1.28H84.8v1.6h3.36l-1.28,1.28Zm0,4.8a7.79,7.79,0,0,1-3.12-.63,8.079,8.079,0,0,1-2.54-1.71,8.078,8.078,0,0,1-1.71-2.54A7.79,7.79,0,0,1,80-872a7.79,7.79,0,0,1,.63-3.12,8.079,8.079,0,0,1,1.71-2.54,8.079,8.079,0,0,1,2.54-1.71A7.789,7.789,0,0,1,88-880a7.789,7.789,0,0,1,3.12.63,8.079,8.079,0,0,1,2.54,1.71,8.079,8.079,0,0,1,1.71,2.54A7.79,7.79,0,0,1,96-872a7.79,7.79,0,0,1-.63,3.12,8.079,8.079,0,0,1-1.71,2.54,8.079,8.079,0,0,1-2.54,1.71A7.79,7.79,0,0,1,88-864Zm0-1.6a6.177,6.177,0,0,0,4.54-1.86A6.177,6.177,0,0,0,94.4-872a6.177,6.177,0,0,0-1.86-4.54A6.177,6.177,0,0,0,88-878.4a6.177,6.177,0,0,0-4.54,1.86A6.177,6.177,0,0,0,81.6-872a6.177,6.177,0,0,0,1.86,4.54A6.177,6.177,0,0,0,88-865.6ZM88-872Z" transform="translate(-80 880)"/>
</svg>
