<svg xmlns="http://www.w3.org/2000/svg" width="14.993" height="15" viewBox="0 0 14.993 15">
  <path id="Path_631" data-name="Path 631" d="M8.754,3.327a4.931,4.931,0,0,1,4.934,4.934v1.41H11.63L15.1,13.139V8.261A6.341,6.341,0,0,0,5.067,3.1L6.082,4.117A4.874,4.874,0,0,1,8.754,3.327ZM1.9,1.72l-.9.9,2.347,2.34a6.272,6.272,0,0,0-.937,3.3V13.2A2.112,2.112,0,0,0,4.524,15.31H6.639V9.671H3.82V8.261a4.891,4.891,0,0,1,.557-2.27l6.492,6.5v2.82h2.115a2.14,2.14,0,0,0,.606-.1L15.1,16.72l.9-.9L1.9,1.72Z" transform="translate(-1 -1.72)" fill="#ebbc40"/>
</svg>
