<svg xmlns="http://www.w3.org/2000/svg" width="15" height="15" viewBox="0 0 15 15">
  <path id="Icon_material-filter-tilt-shift" data-name="Icon material-filter-tilt-shift" d="M9.821,4.6V3.075a7.5,7.5,0,0,0-4.01,1.666l1.07,1.078A5.986,5.986,0,0,1,9.821,4.6Zm5.518.143a7.5,7.5,0,0,0-4.01-1.666V4.6a5.986,5.986,0,0,1,2.94,1.221Zm1.214,5.08h1.523a7.5,7.5,0,0,0-1.666-4.01l-1.078,1.07A5.986,5.986,0,0,1,16.552,9.821ZM5.819,6.882,4.741,5.811a7.5,7.5,0,0,0-1.666,4.01H4.6A5.986,5.986,0,0,1,5.819,6.882ZM4.6,11.329H3.075a7.5,7.5,0,0,0,1.666,4.01l1.078-1.078A5.931,5.931,0,0,1,4.6,11.329Zm10.734,2.94,1.078,1.078a7.524,7.524,0,0,0,1.666-4.01H16.552a5.989,5.989,0,0,1-1.221,2.932Zm-4,2.284v1.523a7.5,7.5,0,0,0,4.01-1.666l-1.078-1.078A5.931,5.931,0,0,1,11.329,16.552Zm-5.518-.143a7.524,7.524,0,0,0,4.01,1.666V16.552a5.986,5.986,0,0,1-2.94-1.221l-1.07,1.078Z" transform="translate(-3.074 -3.075)" fill="#3a3a3a"/>
</svg>
