<svg id="PlayRunner_icon" data-name="PlayRunner icon" xmlns="http://www.w3.org/2000/svg" width="20.139" height="27.6" viewBox="0 0 20.139 27.6">
  <path id="Ellipse_603" data-name="Ellipse 603" d="M3.822,2.426a1.4,1.4,0,1,0,1.4,1.4,1.4,1.4,0,0,0-1.4-1.4M3.822,0A3.822,3.822,0,1,1,0,3.822,3.822,3.822,0,0,1,3.822,0Z" transform="translate(2.972 19.957)" fill="currentColor"/>
  <path id="Path_383" data-name="Path 383" d="M1807.714,5812.263a1.215,1.215,0,0,1-1.214-1.213v-5.607a1.214,1.214,0,0,1,.354-.856l10.883-10.933a1.213,1.213,0,1,1,1.719,1.711l-10.529,10.578v5.107A1.214,1.214,0,0,1,1807.714,5812.263Z" transform="translate(-1800.919 -5793.25)" fill="currentColor"/>
  <path id="Line_96" data-name="Line 96" d="M-8.787-1.994a1.218,1.218,0,0,1-.259-.028,1.213,1.213,0,0,1-.928-1.443l1.213-5.581a1.213,1.213,0,0,1,1.443-.928A1.213,1.213,0,0,1-6.39-8.531L-7.6-2.95A1.214,1.214,0,0,1-8.787-1.994Z" transform="translate(25.41 10.002)" fill="currentColor"/>
  <path id="Line_93" data-name="Line 93" d="M-8.79-6.362a1.214,1.214,0,0,1-1.184-.956,1.213,1.213,0,0,1,.928-1.443l5.581-1.213a1.213,1.213,0,0,1,1.443.928A1.213,1.213,0,0,1-2.95-7.6L-8.531-6.39A1.218,1.218,0,0,1-8.79-6.362Z" transform="translate(20.921 10.002)" fill="currentColor"/>
  <path id="Line_94" data-name="Line 94" d="M-8.787-2.963a1.209,1.209,0,0,1-.858-.355,1.213,1.213,0,0,1,0-1.716l4.61-4.61a1.213,1.213,0,0,1,1.716,0,1.213,1.213,0,0,1,0,1.716l-4.61,4.61A1.209,1.209,0,0,1-8.787-2.963Z" transform="translate(23.103 19.463)" fill="currentColor"/>
  <path id="Line_91" data-name="Line 91" d="M-8.787-2.963a1.209,1.209,0,0,1-.858-.355,1.213,1.213,0,0,1,0-1.716l4.61-4.61a1.213,1.213,0,0,1,1.716,0,1.213,1.213,0,0,1,0,1.716l-4.61,4.61A1.209,1.209,0,0,1-8.787-2.963Z" transform="translate(10 10.044)" fill="currentColor"/>
  <path id="Line_95" data-name="Line 95" d="M1.213,7.037A1.213,1.213,0,0,1,.355,4.966L4.966.355A1.213,1.213,0,0,1,6.681,2.071l-4.61,4.61A1.209,1.209,0,0,1,1.213,7.037Z" transform="translate(20.139 9.463) rotate(90)" fill="currentColor"/>
  <path id="Line_92" data-name="Line 92" d="M1.213,7.037A1.213,1.213,0,0,1,.355,4.966L4.966.355A1.213,1.213,0,0,1,6.681,2.071l-4.61,4.61A1.209,1.209,0,0,1,1.213,7.037Z" transform="translate(7.037 0.044) rotate(90)" fill="currentColor"/>
</svg>
