<?xml version="1.0" encoding="UTF-8"?>
<svg id="Layer_1" data-name="Layer 1" xmlns="http://www.w3.org/2000/svg" viewBox="0 0 1500 450">
  <defs>
    <style>
      .cls-1 {
        fill: #fff;
      }
    </style>
  </defs>
  <path class="cls-1" d="M1139.05,334.75v-111.5c0-61.58-49.92-111.5-111.5-111.5s-111.5,49.92-111.5,111.5,49.92,111.5,111.5,111.5h111.5Zm-57.51-110.28h0c0,29.15-23.63,52.77-52.77,52.77h0c-29.64,0-54.67-23.36-55.2-52.99-.55-30.61,24.37-55.54,54.98-54.98,29.63,.54,52.99,25.57,52.99,55.2Z"/>
  <path class="cls-1" d="M72.04,243.99c15.28,23.14,41.91,36.67,67.24,36.67s41.48-12.22,41.48-30.13-12.66-29.69-43.22-40.17l-26.2-9.17c-49.77-17.46-76.4-46.28-76.4-88.63,0-58.5,44.53-92.99,104.78-92.99,37.98,0,71.16,13.1,97.8,42.79l-41.91,43.22c-14.84-17.9-34.05-26.63-55.45-26.63s-41.48,9.17-41.48,27.51,15.28,27.07,48.02,38.86l24.89,9.17c45.41,16.59,73.78,45.41,73.78,92.12-.44,55.45-44.53,93.43-108.71,93.43-49.33,0-90.81-21.39-113.08-55.45l48.46-40.6Z"/>
  <path class="cls-1" d="M317.84,95.55c-20.52,0-37.98-17.03-37.98-37.98s17.46-37.98,37.98-37.98,38.42,17.03,38.42,37.98-17.03,37.98-38.42,37.98Zm-29.69,20.96h59.81v218.29h-59.81V116.51Z"/>
  <path class="cls-1" d="M500.33,430.42c-37.55,0-76.84-11.35-101.73-34.93l32.74-44.53c19.21,18.34,44.1,27.07,68.11,27.07,35.36,0,58.5-24.89,58.5-59.81v-14.84c-11.35,16.15-35.36,28.82-63.31,28.82-56.76,0-103.04-48.9-103.04-110.02s46.28-110.46,103.04-110.46c27.94,0,51.96,12.66,63.31,29.25v-24.45h59.81v201.27c0,79.02-50.64,112.64-117.44,112.64Zm6.99-152.37c30.13,0,55.45-22.7,55.45-55.88s-25.32-55.88-55.45-55.88-55.45,22.27-55.45,55.88,25.32,55.88,55.45,55.88Z"/>
  <path class="cls-1" d="M668.44,116.51h59.81v24.89c11.35-17.46,34.05-29.69,62.43-29.69,52.83,0,84.26,38.42,84.26,95.18v127.92h-59.81v-117.88c0-31.43-13.53-50.64-38.42-50.64-27.51,0-48.46,20.08-48.46,62v106.53h-59.81V116.51Z"/>
  <path class="cls-1" d="M1191.68,19.58h59.81V334.8h-59.81V19.58Z"/>
  <path class="cls-1" d="M1382.47,339.61c-38.42,0-71.16-13.53-89.94-41.91l41.04-34.93c9.61,16.15,27.94,25.32,48.9,25.32,12.23,0,24.01-4.8,24.01-15.72,0-9.17-5.24-14.41-29.25-20.96l-16.15-3.93c-40.17-10.48-61.12-36.24-60.25-69.85,.87-40.17,35.8-65.93,82.08-65.93,33.18,0,58.94,12.66,75.53,36.67l-39.29,31.87c-10.04-12.66-22.7-19.21-37.11-19.21-10.48,0-21.83,4.8-21.83,14.84,0,6.55,3.06,13.97,21.39,18.77l20.52,6.11c39.29,10.48,63.31,29.69,63.31,67.67,0,42.35-36.24,71.16-82.95,71.16Z"/>
</svg>