<svg id="Signals_WordMark_Mixed-Vector" xmlns="http://www.w3.org/2000/svg" width="123.412" height="35" viewBox="0 0 123.412 35">
  <path id="Path_570" data-name="Path 570" d="M935.137,130.747v-9.5a9.544,9.544,0,1,0-9.544,9.5Zm-4.922-9.394h0a4.506,4.506,0,0,1-4.517,4.5h0a4.678,4.678,0,0,1-4.725-4.514,4.61,4.61,0,0,1,4.706-4.684A4.677,4.677,0,0,1,930.215,121.352Z" transform="translate(-839.661 -103.898)" fill="#93f"/>
  <path id="Path_571" data-name="Path 571" d="M27.728,38.688a7.07,7.07,0,0,0,5.755,3.124c2.168,0,3.55-1.041,3.55-2.567s-1.084-2.529-3.7-3.422l-2.243-.781c-4.26-1.487-6.539-3.942-6.539-7.55,0-4.983,3.811-7.922,8.968-7.922a10.774,10.774,0,0,1,8.371,3.645L38.3,26.9a6,6,0,0,0-4.746-2.269c-1.832,0-3.55.781-3.55,2.344s1.308,2.306,4.11,3.31l2.13.781c3.887,1.413,6.315,3.868,6.315,7.847-.038,4.724-3.811,7.959-9.3,7.959a11.32,11.32,0,0,1-9.679-4.724Z" transform="translate(-23.58 -19.57)"/>
  <path id="Path_572" data-name="Path 572" d="M283.111,26.061a3.236,3.236,0,1,1,3.288-3.235A3.27,3.27,0,0,1,283.111,26.061Zm-2.541,1.786h5.119v18.6H280.57Z" transform="translate(-257.924 -19.588)"/>
  <path id="Path_573" data-name="Path 573" d="M400.906,138.869c-3.214,0-6.577-.967-8.707-2.976L395,132.1a8.465,8.465,0,0,0,5.83,2.306,4.8,4.8,0,0,0,5.007-5.1v-1.264a6.71,6.71,0,0,1-5.419,2.455,9.1,9.1,0,0,1-8.819-9.372c0-5.207,3.961-9.41,8.819-9.41a6.625,6.625,0,0,1,5.419,2.492v-2.083h5.119v17.146c0,6.732-4.334,9.6-10.052,9.6Zm.6-12.98a4.76,4.76,0,1,0-4.746-4.76A4.656,4.656,0,0,0,401.5,125.889Z" transform="translate(-360.1 -103.87)"/>
  <path id="Path_574" data-name="Path 574" d="M668.44,112.119h5.119v2.12a6.25,6.25,0,0,1,5.344-2.529c4.522,0,7.212,3.273,7.212,8.108v10.9H681V120.673c0-2.677-1.158-4.314-3.288-4.314-2.355,0-4.148,1.711-4.148,5.282v9.075H668.44Z" transform="translate(-613.245 -103.861)"/>
  <path id="Path_575" data-name="Path 575" d="M1191.68,19.58h5.119V46.433h-5.119Z" transform="translate(-1091.699 -19.579)"/>
  <path id="Path_576" data-name="Path 576" d="M1300.228,131.115c-3.288,0-6.091-1.153-7.7-3.57l3.513-2.976a4.738,4.738,0,0,0,4.185,2.157c1.047,0,2.055-.409,2.055-1.339,0-.781-.448-1.228-2.5-1.786l-1.382-.335c-3.438-.893-5.231-3.087-5.157-5.95.074-3.422,3.064-5.616,7.025-5.616a7.438,7.438,0,0,1,6.465,3.124l-3.363,2.715a3.974,3.974,0,0,0-3.176-1.636c-.9,0-1.869.409-1.869,1.264,0,.558.262,1.19,1.831,1.6l1.756.52c3.363.893,5.419,2.529,5.419,5.765,0,3.608-3.1,6.062-7.1,6.062Z" transform="translate(-1183.917 -103.852)"/>
</svg>
