<svg width="168" height="30" viewBox="0 0 168 30" fill="none" xmlns="http://www.w3.org/2000/svg">
<path fill-rule="evenodd" clip-rule="evenodd" d="M161.321 16.0839L157.037 14.4516C154.828 13.6083 153.311 12.6555 152.343 11.4737C151.384 10.3041 150.927 8.86463 150.927 6.96595C150.927 4.84343 151.821 3.11668 153.302 1.91138C154.792 0.699752 156.896 0 159.321 0C162.652 0 165.366 1.50325 166.889 3.4203L165.169 4.82015C163.66 3.14227 161.848 2.01945 159.198 2.01945C155.923 2.01945 153.109 3.91511 153.109 6.92515C153.109 8.34164 153.484 9.42012 154.293 10.2918C155.08 11.1414 156.243 11.7533 157.726 12.33L157.729 12.3309L161.562 13.799C163.689 14.6219 165.293 15.5966 166.366 16.8513C167.428 18.0938 168 19.6464 168 21.6933C168 23.9924 167.116 25.8094 165.634 27.059C164.143 28.3155 162.012 29.0264 159.484 29.0264C154.989 29.0264 151.427 26.946 150.072 24.4106L151.939 23.0773C152.735 24.2276 153.691 25.173 154.858 25.8488C156.16 26.603 157.7 27.007 159.525 27.007C161.216 27.007 162.78 26.5363 163.932 25.6405C165.093 24.7372 165.817 23.413 165.817 21.7749C165.817 20.4085 165.396 19.2434 164.606 18.2856C163.822 17.335 162.696 16.6128 161.321 16.0839Z" fill="#1A1B24"/>
<path fill-rule="evenodd" clip-rule="evenodd" d="M129.878 0.00366211H132.051V26.9412H146.465V29.0312H129.878V0.00366211Z" fill="#1A1B24"/>
<path fill-rule="evenodd" clip-rule="evenodd" d="M91.8052 29.0312H89.7525L70.5663 3.59366V29.0312H68.3811V0.00366211H70.4338L89.62 25.4412V0.00366211H91.8052V29.0312Z" fill="#1A1B24"/>
<path d="M60.6629 15.9382V25.2559C58.0744 27.7842 53.9194 29.0264 49.8621 29.0264C40.9267 29.0264 34.737 22.6948 34.737 14.5132C34.737 6.32516 41.0964 0 49.3726 0C53.4593 0 56.8169 1.20503 59.3373 3.41295L57.9369 5.01343C55.7764 3.19483 52.9625 2.01945 49.3726 2.01945C42.2174 2.01945 36.9604 7.49483 36.9604 14.5132C36.9604 18.012 38.2265 21.1405 40.4864 23.3951C42.7473 25.6507 45.9782 27.007 49.8621 27.007C52.8464 27.007 56.1949 26.3064 58.3531 24.5367L58.521 24.399V15.9159L60.6629 15.9382Z" fill="#1A1B24"/>
<path fill-rule="evenodd" clip-rule="evenodd" d="M25.7002 29.0312V0.00366211H27.9949V29.0312H25.7002Z" fill="#1A1B24"/>
<path fill-rule="evenodd" clip-rule="evenodd" d="M14.5335 18.2856C13.7497 17.335 12.6238 16.6128 11.2487 16.0839L6.96412 14.4516C4.75531 13.6083 3.23828 12.6555 2.2701 11.4737C1.31188 10.3041 0.854379 8.86463 0.854379 6.96595C0.854379 4.84343 1.7481 3.11668 3.22971 1.91138C4.71911 0.699752 6.82406 0 9.24818 0C12.5791 0 15.2941 1.50325 16.8168 3.4203L15.0962 4.82015C13.5876 3.14228 11.7759 2.01945 9.12579 2.01945C5.85047 2.01945 3.03701 3.91511 3.03701 6.92515C3.03701 8.34164 3.41194 9.42012 4.2201 10.2918C5.00782 11.1414 6.17097 11.7533 7.65398 12.33L11.4896 13.799L11.4903 13.7993C13.6173 14.622 15.221 15.5967 16.2936 16.8513C17.356 18.0938 17.9275 19.6464 17.9275 21.6933C17.9275 23.9924 17.0437 25.8094 15.5613 27.059C14.0708 28.3155 11.9397 29.0264 9.41136 29.0264C4.91676 29.0264 1.35506 26.946 0 24.4106L1.86654 23.0773C2.66233 24.2276 3.6188 25.173 4.78559 25.8488C6.08781 26.603 7.62751 27.007 9.45216 27.007C11.144 27.007 12.7077 26.5363 13.8594 25.6405C15.0209 24.7372 15.7449 23.413 15.7449 21.7749C15.7449 20.4085 15.3233 19.2434 14.5335 18.2856Z" fill="#1A1B24"/>
<path d="M110.709 0.00366211L123.224 29.0235L120.993 29.0311H120.964L110.729 5.01635L100.705 29.0246H98.2118L110.709 0.00366211Z" fill="#1A1B24"/>
</svg>
