<svg xmlns="http://www.w3.org/2000/svg" width="18" height="18" viewBox="0 0 18 18">
  <g id="Group_2765" data-name="Group 2765" transform="translate(-482)">
    <rect id="Rectangle_1762" data-name="Rectangle 1762" width="18" height="18" transform="translate(482)" fill="#fff" opacity="0"/>
    <path id="Icon_material-date-range" data-name="Icon material-date-range" d="M9.9,11.1H8.1v1.8H9.9Zm3.6,0H11.7v1.8h1.8Zm3.6,0H15.3v1.8h1.8Zm1.8-6.3H18V3H16.2V4.8H9V3H7.2V4.8H6.3A1.792,1.792,0,0,0,4.509,6.6L4.5,19.2A1.8,1.8,0,0,0,6.3,21H18.9a1.805,1.805,0,0,0,1.8-1.8V6.6A1.805,1.805,0,0,0,18.9,4.8Zm0,14.4H6.3V9.3H18.9Z" transform="translate(478.4 -3)" fill="#224646"/>
  </g>
</svg>
