<svg xmlns="http://www.w3.org/2000/svg" xmlns:xlink="http://www.w3.org/1999/xlink" width="657.768" height="42.536" viewBox="0 0 657.768 42.536">
  <defs>
    <filter id="Ellipse_1" x="361.432" y="0" width="42.536" height="42.536" filterUnits="userSpaceOnUse">
      <feOffset dy="3" input="SourceAlpha"/>
      <feGaussianBlur stdDeviation="3" result="blur"/>
      <feFlood flood-opacity="0.161"/>
      <feComposite operator="in" in2="blur"/>
      <feComposite in="SourceGraphic"/>
    </filter>
    <filter id="Ellipse_1-2" x="615.232" y="0" width="42.536" height="42.536" filterUnits="userSpaceOnUse">
      <feOffset dy="3" input="SourceAlpha"/>
      <feGaussianBlur stdDeviation="3" result="blur-2"/>
      <feFlood flood-opacity="0.161"/>
      <feComposite operator="in" in2="blur-2"/>
      <feComposite in="SourceGraphic"/>
    </filter>
  </defs>
  <g id="Group_2807" data-name="Group 2807" transform="translate(0 -9467.776)">
    <g id="Rectangle_1766" data-name="Rectangle 1766" transform="translate(0 9481.045)" fill="#fff" stroke="rgba(0,0,0,0.1)" stroke-width="1">
      <rect width="636.5" height="10" rx="5" stroke="none"/>
      <rect x="0.5" y="0.5" width="635.5" height="9" rx="4.5" fill="none"/>
    </g>
    <path id="Rectangle_1767" data-name="Rectangle 1767" d="M5,0H127.3a0,0,0,0,1,0,0V10a0,0,0,0,1,0,0H5A5,5,0,0,1,0,5V5A5,5,0,0,1,5,0Z" transform="translate(0 9481.045)" fill="#93f"/>
    <rect id="Rectangle_1774" data-name="Rectangle 1774" width="127.3" height="10" transform="translate(127.7 9481.045)" fill="#93f"/>
    <rect id="Rectangle_1775" data-name="Rectangle 1775" width="127.3" height="10" transform="translate(255.4 9481.045)" fill="#93f"/>
    <line id="Line_298" data-name="Line 298" y2="10" transform="translate(127.5 9481.045)" fill="none" stroke="#e5e5e5" stroke-width="2"/>
    <line id="Line_299" data-name="Line 299" y2="10" transform="translate(255.2 9481.045)" fill="none" stroke="#e5e5e5" stroke-width="2"/>
    <line id="Line_300" data-name="Line 300" y2="10" transform="translate(510 9481.045)" fill="none" stroke="#e5e5e5" stroke-width="2"/>
    <g id="Group_2788" data-name="Group 2788" transform="translate(370.2 9473.545)">
      <g transform="matrix(1, 0, 0, 1, -370.2, -5.77)" filter="url(#Ellipse_1)">
        <circle id="Ellipse_1-3" data-name="Ellipse 1" cx="12.268" cy="12.268" r="12.268" transform="translate(370.43 6)" fill="#fff"/>
      </g>
      <path id="Icon_material-check-circle" data-name="Icon material-check-circle" d="M15.5,3A12.5,12.5,0,1,0,28,15.5,12.5,12.5,0,0,0,15.5,3ZM13,21.75,6.75,15.5l1.762-1.762L13,18.212l9.487-9.488L24.25,10.5Z" transform="translate(-3 -3)" fill="#81af20"/>
    </g>
    <g id="Group_2790" data-name="Group 2790" transform="translate(624 9473.545)">
      <g transform="matrix(1, 0, 0, 1, -624, -5.77)" filter="url(#Ellipse_1-2)">
        <circle id="Ellipse_1-4" data-name="Ellipse 1" cx="12.268" cy="12.268" r="12.268" transform="translate(624.23 6)" fill="#fff"/>
      </g>
      <path id="Icon_material-stars" data-name="Icon material-stars" d="M15.487,3A12.5,12.5,0,1,0,28,15.5,12.494,12.494,0,0,0,15.487,3Zm5.3,20L15.5,19.812,10.212,23l1.4-6.012L6.95,12.95l6.15-.525L15.5,6.75l2.4,5.662,6.15.525-4.662,4.037Z" transform="translate(-3 -3)" fill="#c4c4c4"/>
    </g>
  </g>
</svg>
